<svg xmlns="http://www.w3.org/2000/svg" width="3454" height="730"><title>qtctc_asset_logo-bw copy</title><desc>Created with Sketch.</desc><g id="Page-1" fill="none"><g fill="#fff"><g><g><g><path d="M.76 5.72h514.06V125.6H.76z"/><path d="M570.25 5.72h418.3V125.6h-418.3zM570.25 605.12h418.3V725h-418.3z"/><path d="M514.7 123.2V725H374.17V123.2H514.7z"/></g><path d="M1260.34 296.9h-40.94V43.46h-93.87V7.95h228.68v35.5h-93.86V296.9zm109.6 0h-45.48L1451.4 7.96h37.23l125.7 288.96h-46.3l-29.77-71H1399.3l-29.35 71zm43.84-106.52h109.6l-54.6-135.5-55 135.5zM1882.4 252c-11.58 15.52-26.6 28.1-45.08 37.77-18.47 9.66-40.66 14.48-66.58 14.48-22.33 0-42.94-3.74-61.82-11.22-18.9-7.48-35.15-17.96-48.8-31.43-13.64-13.46-24.33-29.52-32.05-48.16-7.72-18.63-11.58-39.1-11.58-61.42 0-22.58 3.92-43.2 11.78-61.83 7.86-18.65 18.75-34.57 32.67-47.77 13.92-13.2 30.4-23.46 49.42-30.8C1729.4 4.26 1750.07.6 1772.4.6c9.92 0 19.98.95 30.18 2.86 10.2 1.9 20 4.76 29.36 8.57 9.38 3.8 17.92 8.5 25.64 14.08 7.72 5.6 14.34 12.05 19.85 19.4l-32.25 24.48c-7.17-9.8-17.3-17.9-30.4-24.28-13.1-6.4-27.22-9.6-42.38-9.6-17.1 0-32.47 3.07-46.1 9.2-13.66 6.1-25.3 14.48-34.96 25.1-9.65 10.6-17.1 22.92-22.33 36.93-5.22 14-7.84 28.9-7.84 44.7 0 16.3 2.55 31.55 7.65 45.7 5.1 14.15 12.4 26.46 21.92 36.94 9.5 10.47 21.1 18.7 34.74 24.7 13.65 5.98 28.88 8.97 45.7 8.97 16.54 0 31.56-3.27 45.07-9.8 13.5-6.53 24.67-16.05 33.5-28.57L1882.4 252zm153.57 44.9h-40.94V43.46h-93.87V7.95h228.68v35.5h-93.87V296.9zm174.7 0h-40.93V7.96h40.94V296.9zm301.6-44.9c-11.6 15.52-26.6 28.1-45.08 37.77-18.48 9.66-40.68 14.48-66.6 14.48-22.32 0-42.93-3.74-61.8-11.22-18.9-7.48-35.16-17.96-48.8-31.43-13.66-13.46-24.34-29.52-32.06-48.16-7.72-18.63-11.58-39.1-11.58-61.42 0-22.58 3.93-43.2 11.8-61.83 7.84-18.65 18.73-34.57 32.66-47.77 13.92-13.2 30.4-23.46 49.4-30.8C2359.27 4.26 2379.93.6 2402.27.6c9.93 0 20 .95 30.2 2.86 10.2 1.9 19.98 4.76 29.35 8.57 9.38 3.8 17.93 8.5 25.65 14.08 7.72 5.6 14.34 12.05 19.85 19.4l-32.26 24.48c-7.16-9.8-17.3-17.9-30.4-24.28-13.1-6.4-27.2-9.6-42.38-9.6-17.1 0-32.46 3.07-46.1 9.2-13.65 6.1-25.3 14.48-34.95 25.1-9.64 10.6-17.08 22.92-22.32 36.93-5.24 14-7.86 28.9-7.86 44.7 0 16.3 2.55 31.55 7.65 45.7 5.1 14.15 12.4 26.46 21.92 36.94 9.5 10.47 21.08 18.7 34.73 24.7 13.64 5.98 28.87 8.97 45.7 8.97 16.53 0 31.56-3.27 45.07-9.8 13.5-6.53 24.67-16.05 33.5-28.57l32.66 22.04zm43.47 44.9h-45.5L2637.22 7.96h37.22l125.72 288.96h-46.32l-29.77-71H2585.1l-29.36 71zm43.84-106.52h109.58l-54.6-135.5-54.98 135.5zm279.13 70.6h130.68v35.93h-171.6V7.96h40.93V261zm211.32 0h130.68v35.93h-171.62V7.96h40.94V261zm253.67 35.93h-41.36V172.03L3192.74 7.95h50.47l81.06 130.6 81.46-130.6h47.56l-109.6 164.07v124.9z"/><path d="M1316.22 386.45c18.98 0 37.57 2.15 55.75 6.46 18.18 4.32 37.8 11.65 58.86 22.02v60.77c-20.58-11.8-39.6-20.34-57.07-25.6-17.46-5.27-35.7-7.9-54.67-7.9-23.77 0-45.23 4.9-64.37 14.7-19.14 9.82-34 23.66-44.62 41.52-10.6 17.87-15.9 37.73-15.9 59.58 0 22.33 5.26 42.35 15.8 60.05 10.52 17.7 25.35 31.38 44.5 41.03 19.13 9.65 40.67 14.48 64.6 14.48 18.34 0 35.84-2.63 52.5-7.9 16.68-5.26 37.7-14.75 63.05-28.47v60.76c-21.7 11.33-41.63 19.38-59.8 24.17-18.2 4.78-39.4 7.18-63.65 7.18-35.25 0-66.76-7-94.5-21.05-27.76-14.03-49.58-34.25-65.45-60.65-15.87-26.4-23.8-55.3-23.8-86.73 0-33.66 8.17-63.88 24.52-90.68 16.35-26.8 38.84-47.46 67.47-61.98 28.63-14.5 60.9-21.77 96.78-21.77zm304.08 4.3c31.42 0 57.02 8.7 76.8 26.1 19.78 17.37 29.67 40.02 29.67 67.94 0 18.97-4.9 35.5-14.72 49.63-9.8 14.12-24.36 25.24-43.66 33.38 10.67 5.75 20.16 13.57 28.46 23.45 8.3 9.9 18.58 26.56 30.86 50 20.42 40.52 35.57 68.44 45.46 83.75h-72c-4.96-7.34-11.66-19.06-20.1-35.17-18.52-35.57-32.07-59.54-40.7-71.9-8.6-12.36-16.9-21.13-24.87-26.32-7.96-5.17-17.14-7.76-27.5-7.76h-23.45V725h-64.6V390.76h120.35zm-14.6 142.6c16.9 0 30.2-4.22 39.84-12.68 9.65-8.45 14.47-20 14.47-34.7 0-15.3-4.77-26.75-14.34-34.32-9.57-7.58-23.2-11.37-40.92-11.37h-40.2v93.07h41.16zm429.7-142.6v50.5h-151.46v87.8h145v50.48h-145v95h154.8V725h-219.4V390.76h216.05zm236.83 0L2419.85 725h-68.2l-34.68-81.35H2168.4L2136.1 725h-67.72l137.8-334.24h66.05zM2188 594.6h107.92l-56.47-132.3L2188 594.6zm512.96-203.84v50.48h-118.68V725h-64.6V441.24h-118.67v-50.48h301.96zm118.9 0V725h-64.6V390.76h64.6zm112.65 0l94.52 214.6 92.1-214.6h67.72L3039.22 729.3h-22.5l-152.4-338.54h68.2zm513.44 0v50.48H3294.5v87.8h144.98v50.5h-145v94.98h154.8V725h-219.4V390.76h216.06z"/></g></g></g></g></svg>