<?xml version="1.0" encoding="UTF-8" standalone="no"?>
<svg width="904px" height="192px" viewBox="0 0 904 192" version="1.1" xmlns="http://www.w3.org/2000/svg" xmlns:xlink="http://www.w3.org/1999/xlink">
    <!-- Generator: Sketch 3.7.2 (28276) - http://www.bohemiancoding.com/sketch -->
    <title>Page 1</title>
    <desc>Created with Sketch.</desc>
    <defs></defs>
    <g id="Page-1" stroke="none" stroke-width="1" fill="none" fill-rule="evenodd">
        <g>
            <polygon id="Fill-1" fill="#27C3F8" points="0.126101796 33.4045833 135.826787 33.4045833 135.826787 1.772875 0.126101796 1.772875"></polygon>
            <polygon id="Stroke-2" stroke="#3CFFFF" stroke-width="0.24" stroke-linejoin="round" points="0.126101796 33.4045833 135.826787 33.4045833 135.826787 1.772875 0.126101796 1.772875"></polygon>
            <polygon id="Fill-3" fill="#27C3F8" points="150.461775 33.4045833 260.885323 33.4045833 260.885323 1.772875 150.461775 1.772875"></polygon>
            <polygon id="Stroke-4" stroke="#3CFFFF" stroke-width="0.24" stroke-linejoin="round" points="150.461775 33.4045833 260.885323 33.4045833 260.885323 1.772875 150.461775 1.772875"></polygon>
            <polygon id="Fill-5" fill="#27C3F8" points="150.461775 191.562583 260.885323 191.562583 260.885323 159.930875 150.461775 159.930875"></polygon>
            <polygon id="Stroke-6" stroke="#3CFFFF" stroke-width="0.24" stroke-linejoin="round" points="150.461775 191.562583 260.885323 191.562583 260.885323 159.930875 150.461775 159.930875"></polygon>
            <polygon id="Fill-7" fill="#27C3F8" points="98.698485 191.562583 135.79644 191.562583 135.79644 32.7719167 98.698485 32.7719167"></polygon>
            <polygon id="Stroke-8" stroke="#3CFFFF" stroke-width="0.24" stroke-linejoin="round" points="98.698485 191.562583 135.79644 191.562583 135.79644 32.7719167 98.698485 32.7719167"></polygon>
            <path d="M327.725805,77.7129167 L316.983401,77.7129167 L316.983401,11.2395833 L292.352228,11.2395833 L292.352228,1.92670833 L352.356979,1.92670833 L352.356979,11.2395833 L327.725805,11.2395833 L327.725805,77.7129167 Z M356.48638,77.7129167 L344.550135,77.7129167 L377.862263,1.92670833 L387.627593,1.92670833 L420.61403,77.7129167 L408.461018,77.7129167 L400.648754,59.0877083 L364.19026,59.0877083 L356.48638,77.7129167 Z M367.988009,49.7748333 L396.742081,49.7748333 L382.419237,14.236625 L367.988009,49.7748333 Z M490.947704,65.9381667 C487.909722,70.0060833 483.967281,73.3064583 479.120925,75.8398333 C474.274027,78.3732083 468.450596,79.639625 461.651174,79.639625 C455.791434,79.639625 450.384195,78.6586667 445.429455,76.6962083 C440.474174,74.73375 436.206042,71.9864167 432.625602,68.4536667 C429.04462,64.9214583 426.241829,60.7110833 424.216147,55.8225417 C422.190464,50.9345417 421.178165,45.5644583 421.178165,39.7128333 C421.178165,33.7897083 422.208889,28.383875 424.270338,23.495875 C426.331787,18.6073333 429.189311,14.4327083 432.842368,10.972 C436.495425,7.51075 440.817749,4.81704167 445.808796,2.89033333 C450.800386,0.963083333 456.225509,0 462.085249,0 C464.689156,0 467.329371,0.249708333 470.005895,0.749125 C472.682419,1.24854167 475.25056,1.99820833 477.710317,2.99704167 C480.169533,3.99641667 482.411982,5.22708333 484.437665,6.690125 C486.462805,8.15316667 488.199105,9.84804167 489.646021,11.77475 L481.182374,18.1972917 C479.301383,15.6281667 476.643284,13.505375 473.206994,11.828375 C469.771246,10.151375 466.063455,9.312875 462.085249,9.312875 C457.60035,9.312875 453.56741,10.115625 449.986428,11.721125 C446.405988,13.326625 443.349581,15.5209167 440.817749,18.304 C438.285916,21.087625 436.33285,24.3165 434.958551,27.9917083 C433.58371,31.6669167 432.89656,35.5739583 432.89656,39.7128333 C432.89656,43.9947083 433.565826,47.9905833 434.903817,51.7015417 C436.24235,55.4125 438.159108,58.641375 440.655174,61.3887083 C443.150698,64.1365833 446.18868,66.295125 449.769662,67.864875 C453.350102,69.4351667 457.346734,70.2200417 461.759557,70.2200417 C466.099763,70.2200417 470.042204,69.3636667 473.586877,67.6509167 C477.131551,65.9381667 480.06115,63.4405417 482.375674,60.1580417 L490.947704,65.9381667 Z M531.24459,77.7129167 L520.502186,77.7129167 L520.502186,11.2395833 L495.871012,11.2395833 L495.871012,1.92670833 L555.873054,1.92670833 L555.873054,11.2395833 L531.24459,11.2395833 L531.24459,77.7129167 Z M566.342874,77.7129167 L577.085278,77.7129167 L577.085278,1.92670833 L566.342874,1.92670833 L566.342874,77.7129167 Z M656.219671,65.9381667 C653.179521,70.0060833 649.23979,73.3064583 644.389641,75.8398333 C639.54491,78.3732083 633.724731,79.639625 626.923683,79.639625 C621.065569,79.639625 615.657246,78.6586667 610.698713,76.6962083 C605.745599,74.73375 601.475299,71.9864167 597.898653,68.4536667 C594.316587,64.9214583 591.51488,60.7110833 589.488114,55.8225417 C587.461347,50.9345417 586.447964,45.5644583 586.447964,39.7128333 C586.447964,33.7897083 587.483024,28.383875 589.542305,23.495875 C591.601587,18.6073333 594.462904,14.4327083 598.115419,10.972 C601.767934,7.51075 606.087006,4.81704167 611.078054,2.89033333 C616.074521,0.963083333 621.499102,0 627.357216,0 C629.958413,0 632.602964,0.249708333 635.28003,0.749125 C637.951677,1.24854167 640.520359,1.99820833 642.980659,2.99704167 C645.440958,3.99641667 647.684491,5.22708333 649.711257,6.690125 C651.732605,8.15316667 653.472156,9.84804167 654.919072,11.77475 L646.454341,18.1972917 C644.573892,15.6281667 641.913084,13.505375 638.477335,11.828375 C635.041587,10.151375 631.33488,9.312875 627.357216,9.312875 C622.87015,9.312875 618.838293,10.115625 615.256228,11.721125 C611.679581,13.326625 608.623174,15.5209167 606.087006,18.304 C603.556257,21.087625 601.605359,24.3165 600.228892,27.9917083 C598.857844,31.6669167 598.169611,35.5739583 598.169611,39.7128333 C598.169611,43.9947083 598.836168,47.9905833 600.174701,51.7015417 C601.513234,55.4125 603.431617,58.641375 605.924431,61.3887083 C608.422665,64.1365833 611.462814,66.295125 615.039461,67.864875 C618.621527,69.4351667 622.620868,70.2200417 627.032066,70.2200417 C631.372814,70.2200417 635.312545,69.3636667 638.856677,67.6509167 C642.400808,65.9381667 645.332575,63.4405417 647.646557,60.1580417 L656.219671,65.9381667 Z M667.627006,77.7129167 L655.694012,77.7129167 L689.005599,1.92670833 L698.770928,1.92670833 L731.757365,77.7129167 L719.602186,77.7129167 L711.793174,59.0877083 L675.333054,59.0877083 L667.627006,77.7129167 Z M679.131886,49.7748333 L707.885958,49.7748333 L693.563114,14.236625 L679.131886,49.7748333 Z M752.371856,68.2933333 L786.658892,68.2933333 L786.658892,77.7129167 L741.631078,77.7129167 L741.631078,1.92670833 L752.371856,1.92670833 L752.371856,68.2933333 Z M807.820719,68.2933333 L842.107754,68.2933333 L842.107754,77.7129167 L797.074521,77.7129167 L797.074521,1.92670833 L807.820719,1.92670833 L807.820719,68.2933333 Z M874.378862,77.7129167 L863.529701,77.7129167 L863.529701,44.9577917 L834.775629,1.92670833 L848.014641,1.92670833 L869.279431,36.180625 L890.658024,1.92670833 L903.132934,1.92670833 L874.378862,44.9577917 L874.378862,77.7129167 Z" id="Fill-9" fill="#FFFFFF"></path>
            <path d="M342.388973,101.197417 C347.369183,101.197417 352.245344,101.761833 357.016374,102.891208 C361.787404,104.021125 366.935608,105.945125 372.459901,108.664292 L372.459901,124.602833 C367.06079,121.507208 362.070284,119.269042 357.487299,117.888875 C352.904314,116.508167 348.122446,115.818083 343.142237,115.818083 C336.905865,115.818083 331.276982,117.104542 326.254503,119.676917 C321.232024,122.249833 317.329144,125.879 314.546404,130.564417 C311.763123,135.249833 310.371482,140.457958 310.371482,146.189333 C310.371482,152.045833 311.752284,157.296208 314.514973,161.939375 C317.27712,166.583083 321.169162,170.17 326.191641,172.701208 C331.21412,175.232417 336.864138,176.49775 343.142237,176.49775 C347.954994,176.49775 352.548275,175.807125 356.922081,174.426958 C361.295886,173.04625 366.809883,170.557292 373.464614,166.959542 L373.464614,182.898083 C367.772326,185.868583 362.540668,187.981083 357.769638,189.236125 C352.998608,190.491167 347.432045,191.118417 341.070491,191.118417 C331.821066,191.118417 323.555219,189.277833 316.272407,185.596667 C308.990138,181.914958 303.266961,176.612583 299.102335,169.689 C294.938251,162.765958 292.85621,155.183708 292.85621,146.94225 C292.85621,138.11525 295.001114,130.187958 299.290922,123.159833 C303.580731,116.131708 309.482198,110.7145 316.994781,106.907667 C324.507365,103.100833 332.972096,101.197417 342.388973,101.197417 L342.388973,101.197417 Z M422.17529,102.326792 C430.420545,102.326792 437.137596,104.606667 442.327527,109.166417 C447.517458,113.726167 450.112153,119.666625 450.112153,126.987792 C450.112153,131.965708 448.825102,136.306083 446.251,140.008375 C443.67744,143.710667 439.858015,146.628625 434.793808,148.761708 C437.598225,150.268083 440.088329,152.31775 442.264665,154.91125 C444.441,157.505292 447.140284,161.876542 450.36306,168.026083 C455.720443,178.651958 459.696482,185.973125 462.291177,189.989042 L443.39456,189.989042 C442.097213,188.0645 440.339237,184.99 438.121174,180.764458 C433.266147,171.435875 429.709009,165.150375 427.448677,161.907958 C425.188886,158.666083 423.012551,156.365083 420.919671,155.0055 C418.827332,153.645917 416.420683,152.966125 413.700263,152.966125 L407.547889,152.966125 L407.547889,189.989042 L390.597293,189.989042 L390.597293,102.326792 L422.17529,102.326792 Z M418.345569,139.726167 C422.782237,139.726167 426.266216,138.617375 428.79859,136.400333 C431.330422,134.18275 432.59688,131.149958 432.59688,127.301417 C432.59688,123.2855 431.34126,120.283583 428.830021,118.29675 C426.318781,116.309375 422.740509,115.315958 418.094662,115.315958 L407.547889,115.315958 L407.547889,139.726167 L418.345569,139.726167 Z M531.091228,102.326792 L531.091228,115.56675 L491.351973,115.56675 L491.351973,138.59625 L529.396656,138.59625 L529.396656,151.83675 L491.351973,151.83675 L491.351973,176.748542 L531.970216,176.748542 L531.970216,189.989042 L474.401919,189.989042 L474.401919,102.326792 L531.091228,102.326792 Z M593.238174,102.326792 L631.974341,189.989042 L614.080269,189.989042 L604.976078,168.653875 L565.990629,168.653875 L557.51506,189.989042 L539.749422,189.989042 L575.907695,102.326792 L593.238174,102.326792 Z M571.138832,155.789833 L599.453952,155.789833 L584.637964,121.089042 L571.138832,155.789833 Z M705.729132,102.326792 L705.729132,115.56675 L674.590629,115.56675 L674.590629,189.989042 L657.64491,189.989042 L657.64491,115.56675 L626.506407,115.56675 L626.506407,102.326792 L705.729132,102.326792 Z M719.976108,189.989042 L736.926704,189.989042 L736.926704,102.326792 L719.976108,102.326792 L719.976108,189.989042 Z M766.488772,102.326792 L791.286856,158.613542 L815.456317,102.326792 L833.225749,102.326792 L794.489581,191.118417 L788.588114,191.118417 L748.60012,102.326792 L766.488772,102.326792 Z M901.209132,102.326792 L901.209132,115.56675 L861.470419,115.56675 L861.470419,138.59625 L899.512934,138.59625 L899.512934,151.83675 L861.470419,151.83675 L861.470419,176.748542 L902.087036,176.748542 L902.087036,189.989042 L844.519281,189.989042 L844.519281,102.326792 L901.209132,102.326792 Z" id="Fill-10" fill="#FFFFFF"></path>
        </g>
    </g>
</svg>