<?xml version="1.0" encoding="UTF-8" standalone="no"?>
<svg width="3454px" height="730px" viewBox="0 0 3454 730" version="1.1" xmlns="http://www.w3.org/2000/svg" xmlns:xlink="http://www.w3.org/1999/xlink" xmlns:sketch="http://www.bohemiancoding.com/sketch/ns">
    <!-- Generator: Sketch 3.3.2 (12043) - http://www.bohemiancoding.com/sketch -->
    <title>qtctc_asset_logo-bw copy</title>
    <desc>Created with Sketch.</desc>
    <defs></defs>
    <g id="Page-1" stroke="none" stroke-width="1" fill="none" fill-rule="evenodd" sketch:type="MSPage">
        <g id="qtctc_asset_logo-bw-copy" sketch:type="MSLayerGroup" transform="translate(-1.000000, 0.000000)" fill="#FFFFFF">
            <g id="Page-1" sketch:type="MSShapeGroup">
                <g id="Logo---White">
                    <g id="Icon" transform="translate(0.763444, 5.718750)">
                        <rect id="Rectangle-1" x="1" y="0" width="514.055112" height="119.880208"></rect>
                        <rect id="Rectangle-3" x="570.492428" y="0" width="418.299748" height="119.880208"></rect>
                        <rect id="Rectangle-3" x="570.492428" y="599.401042" width="418.299748" height="119.880208"></rect>
                        <path d="M514.93805,117.482604 L514.93805,719.28125 L374.406036,719.28125 L374.406036,117.482604 L514.93805,117.482604 L514.93805,117.482604 Z" id="Rectangle-2"></path>
                    </g>
                    <path d="M1261.33905,296.908417 L1220.3995,296.908417 L1220.3995,43.454421 L1126.528,43.454421 L1126.528,7.9463733 L1355.21055,7.9463733 L1355.21055,43.454421 L1261.33905,43.454421 L1261.33905,296.908417 L1261.33905,296.908417 Z M1370.94816,296.908417 L1325.45977,296.908417 L1452.41374,7.9463733 L1489.63151,7.9463733 L1615.34489,296.908417 L1569.02943,296.908417 L1539.25521,225.892321 L1400.30885,225.892321 L1370.94816,296.908417 L1370.94816,296.908417 Z M1414.78243,190.384274 L1524.3681,190.384274 L1469.78203,54.8822984 L1414.78243,190.384274 L1414.78243,190.384274 Z M1883.39513,252.013184 C1871.81621,267.522524 1856.79141,280.106668 1838.32027,289.765993 C1819.84914,299.425319 1797.65654,304.254909 1771.74181,304.254909 C1749.41103,304.254909 1728.80362,300.513677 1709.91895,293.031101 C1691.03428,285.548525 1674.7689,275.073075 1661.12231,261.604438 C1647.47573,248.135801 1636.79295,232.082515 1629.07367,213.444098 C1621.35439,194.805681 1617.49481,174.330938 1617.49481,152.019257 C1617.49481,129.435481 1621.42331,108.824694 1629.28044,90.186277 C1637.13756,71.5478598 1648.0271,55.6306183 1661.94937,42.4340748 C1675.87165,29.2375313 1692.3438,18.9661489 1711.36631,11.6196196 C1730.38882,4.2730902 1751.06516,0.5998806 1773.39593,0.5998806 C1783.32072,0.5998806 1793.38321,1.5521942 1803.58368,3.45685 C1813.78416,5.3615057 1823.57096,8.2184465 1832.94437,12.0277581 C1842.31779,15.8370696 1850.864,20.5306152 1858.58328,26.1085356 C1866.30257,31.686456 1872.91899,38.148584 1878.43276,45.4951134 L1846.17736,69.9834222 C1839.00946,60.1880497 1828.87805,52.0933841 1815.78284,45.6991826 C1802.68764,39.3049811 1788.55881,36.1079284 1773.39593,36.1079284 C1756.30324,36.1079284 1740.93383,39.1689363 1727.28725,45.2910441 C1713.64066,51.4131519 1701.99299,59.7799071 1692.34389,70.3915606 C1682.69479,81.003214 1675.25131,93.315269 1670.01323,107.328093 C1664.77514,121.340918 1662.15614,136.237823 1662.15614,152.019257 C1662.15614,168.344877 1664.70622,183.581895 1669.80646,197.730766 C1674.9067,211.879638 1682.21234,224.191692 1691.72359,234.667299 C1701.23485,245.142905 1712.8136,253.373616 1726.46018,259.359677 C1740.10677,265.345738 1755.33834,268.338723 1772.15534,268.338723 C1788.69666,268.338723 1803.72146,265.073648 1817.2302,258.5434 C1830.73894,252.013151 1841.90416,242.490015 1850.7262,229.973706 L1883.39513,252.013184 L1883.39513,252.013184 Z M2036.9689,296.908417 L1996.02934,296.908417 L1996.02934,43.454421 L1902.15784,43.454421 L1902.15784,7.9463733 L2130.84039,7.9463733 L2130.84039,43.454421 L2036.9689,43.454421 L2036.9689,296.908417 L2036.9689,296.908417 Z M2211.67979,296.908417 L2170.74024,296.908417 L2170.74024,7.9463733 L2211.67979,7.9463733 L2211.67979,296.908417 L2211.67979,296.908417 Z M2513.26142,252.013184 C2501.6825,267.522524 2486.65769,280.106668 2468.18656,289.765993 C2449.71542,299.425319 2427.52282,304.254909 2401.60809,304.254909 C2379.27732,304.254909 2358.6699,300.513677 2339.78523,293.031101 C2320.90057,285.548525 2304.63518,275.073075 2290.9886,261.604438 C2277.34201,248.135801 2266.65924,232.082515 2258.93996,213.444098 C2251.22068,194.805681 2247.36109,174.330938 2247.36109,152.019257 C2247.36109,129.435481 2251.2896,108.824694 2259.14672,90.186277 C2267.00385,71.5478598 2277.89338,55.6306183 2291.81566,42.4340748 C2305.73793,29.2375313 2322.21008,18.9661489 2341.23259,11.6196196 C2360.25511,4.2730902 2380.93144,0.5998806 2403.26222,0.5998806 C2413.18701,0.5998806 2423.24949,1.5521942 2433.44997,3.45685 C2443.65045,5.3615057 2453.43724,8.2184465 2462.81066,12.0277581 C2472.18407,15.8370696 2480.73029,20.5306152 2488.44957,26.1085356 C2496.16885,31.686456 2502.78528,38.148584 2508.29905,45.4951134 L2476.04364,69.9834222 C2468.87574,60.1880497 2458.74434,52.0933841 2445.64913,45.6991826 C2432.55392,39.3049811 2418.42509,36.1079284 2403.26222,36.1079284 C2386.16952,36.1079284 2370.80012,39.1689363 2357.15353,45.2910441 C2343.50694,51.4131519 2331.85928,59.7799071 2322.21017,70.3915606 C2312.56107,81.003214 2305.11759,93.315269 2299.87951,107.328093 C2294.64143,121.340918 2292.02242,136.237823 2292.02242,152.019257 C2292.02242,168.344877 2294.5725,183.581895 2299.67274,197.730766 C2304.77298,211.879638 2312.07862,224.191692 2321.58988,234.667299 C2331.10113,245.142905 2342.67988,253.373616 2356.32647,259.359677 C2369.97305,265.345738 2385.20462,268.338723 2402.02162,268.338723 C2418.56294,268.338723 2433.58774,265.073648 2447.09649,258.5434 C2460.60523,252.013151 2471.77045,242.490015 2480.59248,229.973706 L2513.26142,252.013184 L2513.26142,252.013184 Z M2556.74098,296.908417 L2511.25259,296.908417 L2638.20656,7.9463733 L2675.42433,7.9463733 L2801.1377,296.908417 L2754.82225,296.908417 L2725.04803,225.892321 L2586.10167,225.892321 L2556.74098,296.908417 L2556.74098,296.908417 Z M2600.57525,190.384274 L2710.16092,190.384274 L2655.57485,54.8822984 L2600.57525,190.384274 L2600.57525,190.384274 Z M2879.70856,260.992231 L3010.38431,260.992231 L3010.38431,296.908417 L2838.76901,296.908417 L2838.76901,7.9463733 L2879.70856,7.9463733 L2879.70856,260.992231 L2879.70856,260.992231 Z M3091.02282,260.992231 L3221.69856,260.992231 L3221.69856,296.908417 L3050.08327,296.908417 L3050.08327,7.9463733 L3091.02282,7.9463733 L3091.02282,260.992231 L3091.02282,260.992231 Z M3344.6937,296.908417 L3303.34061,296.908417 L3303.34061,172.018042 L3193.75494,7.9463733 L3244.20571,7.9463733 L3325.25775,138.550687 L3406.72332,7.9463733 L3454.27937,7.9463733 L3344.6937,172.018042 L3344.6937,296.908417 L3344.6937,296.908417 Z" id="TACTICALLY"></path>
                    <path d="M1317.22168,386.450195 C1336.20289,386.450195 1354.78507,388.603494 1372.96875,392.910156 C1391.15243,397.216818 1410.77138,404.553985 1431.82617,414.921875 L1431.82617,475.693359 C1411.2499,463.889915 1392.22909,455.356472 1374.76318,450.092773 C1357.29728,444.829075 1339.07399,442.197266 1320.09277,442.197266 C1296.32638,442.197266 1274.87314,447.102002 1255.73242,456.911621 C1236.5917,466.72124 1221.71799,480.558179 1211.11084,498.422852 C1200.50369,516.287524 1195.2002,536.145724 1195.2002,557.998047 C1195.2002,580.328888 1200.46381,600.346591 1210.99121,618.051758 C1221.51861,635.756924 1236.35244,649.434359 1255.49316,659.084473 C1274.63388,668.734586 1296.16687,673.55957 1320.09277,673.55957 C1338.43596,673.55957 1355.94149,670.927761 1372.60986,665.664062 C1389.27824,660.400364 1410.29284,650.909899 1435.6543,637.192383 L1435.6543,697.963867 C1413.96148,709.288794 1394.02353,717.343726 1375.83984,722.128906 C1357.65616,726.914086 1336.44218,729.306641 1312.19727,729.306641 C1276.94644,729.306641 1245.44447,722.288482 1217.69043,708.251953 C1189.93638,694.215425 1168.12427,673.998342 1152.25342,647.600098 C1136.38257,621.201854 1128.44727,592.291824 1128.44727,560.869141 C1128.44727,527.213373 1136.62183,496.987439 1152.97119,470.19043 C1169.32056,443.393421 1191.81057,422.737703 1220.44189,408.222656 C1249.07322,393.70761 1281.33283,386.450195 1317.22168,386.450195 L1317.22168,386.450195 L1317.22168,386.450195 Z M1621.29606,390.756836 C1652.71874,390.756836 1678.31907,399.449783 1698.09782,416.835938 C1717.87656,434.222092 1727.76579,456.871605 1727.76579,484.785156 C1727.76579,503.766371 1722.86105,520.314871 1713.05143,534.431152 C1703.24181,548.547434 1688.68711,559.672811 1669.38688,567.807617 C1680.07378,573.549833 1689.56425,581.36551 1697.85856,591.254883 C1706.15287,601.144255 1716.44085,617.812383 1728.72282,641.259766 C1749.13959,681.774291 1764.29243,709.687423 1774.1818,725 L1702.1652,725 C1697.22051,717.662724 1690.52136,705.939208 1682.06754,689.829102 C1663.56485,654.259262 1650.00704,630.293844 1641.39372,617.932129 C1632.78039,605.570413 1624.4862,596.797715 1616.5109,591.61377 C1608.5356,586.429824 1599.36415,583.837891 1588.99625,583.837891 L1565.54899,583.837891 L1565.54899,725 L1500.94938,725 L1500.94938,390.756836 L1621.29606,390.756836 L1621.29606,390.756836 Z M1606.70133,533.354492 C1623.60897,533.354492 1636.88765,529.127646 1646.53776,520.673828 C1656.18787,512.22001 1661.01286,500.655998 1661.01286,485.981445 C1661.01286,470.668869 1656.22775,459.224484 1646.65739,451.647949 C1637.08703,444.071414 1623.44947,440.283203 1605.7443,440.283203 L1565.54899,440.283203 L1565.54899,533.354492 L1606.70133,533.354492 L1606.70133,533.354492 Z M2036.38606,390.756836 L2036.38606,441.240234 L1884.93587,441.240234 L1884.93587,529.047852 L2029.9261,529.047852 L2029.9261,579.53125 L1884.93587,579.53125 L1884.93587,674.516602 L2039.73567,674.516602 L2039.73567,725 L1820.33626,725 L1820.33626,390.756836 L2036.38606,390.756836 L2036.38606,390.756836 Z M2273.229,390.756836 L2420.85107,725 L2352.66259,725 L2317.97021,643.652344 L2169.39111,643.652344 L2137.0913,725 L2069.38134,725 L2207.19384,390.756836 L2273.229,390.756836 L2273.229,390.756836 Z M2189.01025,594.604492 L2296.91552,594.604492 L2240.45068,462.294922 L2189.01025,594.604492 L2189.01025,594.604492 Z M2701.9567,390.756836 L2701.9567,441.240234 L2583.28482,441.240234 L2583.28482,725 L2518.68521,725 L2518.68521,441.240234 L2400.01334,441.240234 L2400.01334,390.756836 L2701.9567,390.756836 L2701.9567,390.756836 Z M2820.84553,390.756836 L2820.84553,725 L2756.24592,725 L2756.24592,390.756836 L2820.84553,390.756836 L2820.84553,390.756836 Z M2933.51366,390.756836 L3028.0205,605.371094 L3120.13475,390.756836 L3187.84472,390.756836 L3040.22265,729.306641 L3017.73241,729.306641 L2865.32518,390.756836 L2933.51366,390.756836 L2933.51366,390.756836 Z M3446.93863,390.756836 L3446.93863,441.240234 L3295.48843,441.240234 L3295.48843,529.047852 L3440.47867,529.047852 L3440.47867,579.53125 L3295.48843,579.53125 L3295.48843,674.516602 L3450.28824,674.516602 L3450.28824,725 L3230.88882,725 L3230.88882,390.756836 L3446.93863,390.756836 L3446.93863,390.756836 Z" id="CREATIVE"></path>
                </g>
            </g>
        </g>
    </g>
</svg>